<?xml version="1.0" encoding="UTF-8"?>
<svg xmlns="http://www.w3.org/2000/svg" version="1.1" viewBox="0 0 512 512">
  <path fill="currentColor" d="M258.7,418.6c-51,0-101.7,0-152.5,0-21.9,0-37.3-10.5-46.9-29.9-2.9-5.9-4.3-12.2-4.3-18.8,0-75.7,0-151.4,0-227.1,0-19.9,13.4-38.8,32.2-45.9,6-2.3,12.1-3.3,18.5-3.3,35.4,0,70.8.2,106.2,0,12.7,0,23.7,4.2,33.7,11.7,9.6,7.2,19.3,14.4,29,21.5,4.8,3.5,10.5,4.3,16.3,4.3,37.8,0,75.6.2,113.4,0,24.2-.2,45.5,17.3,50,41.3.5,2.4.8,4.9.8,7.5,0,63.3,0,126.6,0,189.9,0,23.9-19.4,45.6-43.1,48.6-2.9.4-5.9.4-8.8.4-48,0-96.1,0-144.4,0M136.1,393.2c88.6,0,177.3,0,265.9,0,2.9,0,5.7-.2,8.5-.8,11.5-2.6,19.2-12.4,19.2-24.6,0-61.8,0-123.7,0-185.5,0-2.4-.3-4.7-.8-7-2.6-11.5-12.4-19-25-19.1-39.5,0-78.9,0-118.4,0-9.2,0-17.8-2.8-25.2-8.3-9.5-7-18.8-14.1-28.1-21.4-5.8-4.6-12.1-7.6-19.7-7.6-35.6,0-71.1,0-106.7,0-6.6,0-12.6,1.9-17.6,6.6-5.5,5.2-7.9,11.7-7.9,19.1,0,19.9,0,39.9,0,59.8,0,53.9,0,107.9,0,161.8,0,5.2.7,10.2,3.5,14.7,5.1,8.4,12.7,12.2,22.4,12.3,9.8,0,19.6,0,29.9,0Z"/>
  <path fill="currentColor" d="M158.6,256.4c-.7-7.1,2.1-12.9,5.4-18.5,3.3-5.5,6.4-11.1,9.5-16.7,6.9-12.3,22-17.1,34.8-11,4.7,2.2,8.8-.2,8.9-5.5.5-13.2,11.2-23.7,24.4-23.8,8.8,0,17.7,0,26.5,0,13.1,0,24,10.6,24.4,23.8.2,5.2,3.9,7.6,8.7,5.5,14.4-6.4,28.4-1.4,36.1,12.7,3.2,5.8,6.5,11.6,9.9,17.4,7.4,12.4,4.4,27-7.4,35.4-4.8,3.4-4.7,7.3.2,10.7,11.5,8.1,14.6,23.7,7.5,34.7-4,6.2-7.4,12.7-11,19.1-7.2,13-21.9,18-35.2,11.4-4-2-8.8.5-8.9,5.5-.4,13.6-11.2,23.9-24.8,23.9-8.7,0-17.3,0-26,0-13.2,0-24.1-10.6-24.5-23.7-.2-5.4-3.9-7.7-8.8-5.6-13.8,6-27.2,1.8-34.9-11.2-4.2-7.1-8.4-14.2-12.2-21.5-6-11.6-2.2-25.7,8.7-33,4.4-3,4.5-7.2.2-10.2-6.8-4.8-10.7-11.2-11.8-19.6M188.5,257.2c6.6,5.8,10,13.3,10.4,22,.4,11-3.2,20.4-12.4,27.2-1.2.9-1.8,1.7-.9,3.2,3.3,5.7,6.5,11.5,9.7,17.2.9,1.5,2.1,1.9,3.7,1.1,5.4-2.6,11-3.1,16.9-2.3,13.9,2,25.7,14.2,26.7,27.9.1,1.9.9,2.3,2.6,2.3,6.5,0,13,0,19.5,0,1.7,0,2.5-.6,2.6-2.4,1.8-21.1,25.7-34.1,43.5-25.6,2.1,1,3,.5,4-1.4,2.9-5.4,6-10.7,9.2-16,1.2-2,1-3.2-1-4.4-4.9-3.3-8-8.1-10-13.5-4.7-12.7-1-29.4,11.2-37.1.7-.5,1.3-1,.7-1.9-3.6-6.2-7.2-12.5-10.7-18.7-.7-1.2-1.5-1.3-2.8-.7-5.4,2.8-11.1,3.3-17.2,2.6-13.8-1.8-25.9-14.1-27-27.9-.1-1.9-.9-2.3-2.6-2.3-6.5,0-13,0-19.5,0-1.8,0-2.6.6-2.7,2.5-.5,8-3.9,14.7-10,19.8-10.3,8.5-21.7,10.4-34.2,5.4-1.2-.5-2.1-.4-2.8.8-3.4,6-6.8,11.9-10.1,17.8-.7,1.2-.6,2.1.7,2.8.7.4,1.4,1,2.4,1.8Z"/>
  <path fill="currentColor" d="M273.3,275.9c2.8,10.6-3.8,21.3-14.5,23.7-9.9,2.2-20.9-5.3-22.6-15.5-1.7-9.9,4.9-19.4,14.9-21.8,9.2-2.2,19,3.8,22.1,13.6Z"/>
</svg>