<?xml version="1.0" encoding="UTF-8"?>
<svg xmlns="http://www.w3.org/2000/svg" version="1.1" viewBox="0 0 512 512" fill="currentColor">
  <path d="M126.8,92.9c26.1,0,51.7.4,77.2-.1,17.4-.4,32.8,4,46.3,15.3,6.3,5.2,13.2,9.6,19.5,14.8,6.8,5.6,14.3,7.7,23.1,7.7,36.8-.2,73.5-.1,110.3,0,29,0,51.7,22.4,51.8,51.6.1,60.9,0,121.8,0,182.7,0,20.8-8.5,37-26.9,47.4-8.4,4.8-17.7,6.1-27.2,6.1-97,0-193.9-.1-290.9.1-30.5,0-48.4-19-53.2-38.7-1.2-4.8-1.9-9.7-1.9-14.7,0-72.8,0-145.6,0-218.4,0-31.7,21.9-53.4,53.6-53.5,5.9,0,11.7,0,18.1,0M429.1,198.2c0-4.4,0-8.9,0-13.3-.1-18.8-9.8-28.4-28.7-28.4-36.6,0-73.2,0-109.7,0-12.9,0-24.4-3.4-34.6-11.5-5.7-4.6-11.8-8.5-17.2-13.4-10.6-9.5-22.5-13.1-37-12.7-31,.9-62.1.3-93.2.3-18.1,0-27.4,9.4-27.4,27.6,0,72.3.3,144.5-.2,216.8-.1,15.4,9.4,28.5,28.2,28.4,58.9-.6,117.9-.2,176.8-.2,38.9,0,77.8,0,116.7,0,13,0,21.6-5.8,24.8-16.8,1.2-4.2,1.6-8.7,1.6-13.1,0-54.2,0-108.3,0-163.5Z"/>
  <path d="M256.6,193c22.1.5,41.2,15.7,47.1,37.2,5.7,20.7-3.1,43.7-21.5,55.2-16.4,10.3-33.5,11.2-50.5,2.1-17.4-9.3-26.7-24.5-26.9-44.1-.2-29.5,24.4-51.7,51.8-50.4M276.3,254.9c2.9-5.2,3.3-10.8,2.4-16.5-1.9-12.9-13.7-20.9-27.9-19.1-11.5,1.5-21.1,13.4-20.1,24.9.9,10.4,8,19.7,17.1,22.2,11.1,3.1,21.4-.9,28.5-11.4Z"/>
  <path d="M187,367.8c-12.6-.3-17.7-9.2-11.3-19.3,13.3-21.1,32.7-31.4,57.5-31.4,17.9,0,35.9-1.2,53.7.8,21.9,2.4,38.4,13.8,49,33.2,2.5,4.6,1.7,9.4-2,13.3-3.6,3.8-10.6,4.8-15.3,2.3-2.7-1.4-5.1-3.3-6.8-5.8-7.6-10.8-17.8-17.1-31.2-17.6-17.4-.5-34.8-.7-52.2,0-12.7.6-22.6,6.6-29.8,17-2.8,4-6.4,6.5-11.6,7.5Z"/>
</svg>