<?xml version="1.0" encoding="UTF-8"?>
<svg xmlns="http://www.w3.org/2000/svg" version="1.1" viewBox="0 0 512 512">
  <path class="st0" d="M192.3,181.1c0,6.7-5,12-12.4,12.2-.4,0-.8,0-1.3,0h0c0,0-.1,0-.2,0-16,.3-31.9.2-47.9.1-1.5,0-2.9-.2-4.2-.5,0,0,0,0-.1,0-2.9-.8-5.2-2.4-6.7-4.7-.1-.2-.2-.3-.3-.5,0-.2-.2-.3-.3-.5-1-1.8-1.5-3.9-1.5-6.3,0-3.8,1.5-7.1,4.2-9.4,0,0,0,0,.1,0,2.6-2.3,5.8-2.9,9.3-3,5.1,0,10.1,0,15.2,0,.1,0,.2,0,.3,0,6.5,0,13,0,19.5,0h.5c4.3,0,8.6,0,12.9,0,1.5,0,2.9.2,4.2.6,0,0,0,0,0,0,4.1,1.2,6.9,4,8.1,7.9,0,0,0,0,0,0,.4,1.3.6,2.6.6,4.1ZM454.9,157.7c0,65.8,0,131.6,0,197.4,0,28.1-21.9,50.7-50,50.7-100.3.2-200.6.2-300.9,0-26,0-47.7-21.6-48.9-47.7,0-1.7-.1-3.3-.1-5v-195.4c0-29.7,21.8-51.7,51.5-51.8,34.7,0,69.3,0,104.5,0h191.9c30.1,0,52,21.8,52,51.8ZM229.9,131h-5c-39,0-78,0-116.9,0-18.2,0-28,9.9-28,28.1,0,64.6,0,129.3,0,193.9,0,18.2,9.9,28,28.1,28,39,0,78,0,117,0h5v-250ZM429.9,159c0-18.1-9.9-28-28.1-28-47.3,0-94.6,0-141.9,0h-5v250h5c47.3,0,94.6,0,141.9,0,18.1,0,28-9.9,28-28.1,0-64.6,0-129.3,0-193.9ZM179.3,218.5c-16.1-.1-32.2,0-48.4,0-.3,0-.6,0-.8,0-.2,0-.4,0-.6,0,0,0,0,0-.1,0-.2,0-.3,0-.5,0-.3,0-.7,0-1,.1-.2,0-.4,0-.6.1-.1,0-.2,0-.3,0-.2,0-.4,0-.6.1-2.6.7-4.9,2.1-6.8,5.1,0,0,0,0,0,0-3,6.1-2.2,12.1,1.3,15.7.1.1.3.2.4.4.3.2.5.5.8.7.5.3.9.6,1.4.9.3.1.5.3.8.4.3.1.5.2.8.3,0,0,0,0,0,0,.3,0,.5.2.8.3,0,0,0,0,.1,0,.3,0,.5.1.8.2.8.2,1.7.3,2.6.3,16.8.3,33.6.2,50.4,0,7.4-.1,12.5-5.5,12.4-12.2,0-7.5-5.1-12.6-13-12.7ZM191.1,275.4c-1.6-3.3-4.5-5.6-8.4-6.4,0,0,0,0,0,0-.6-.1-1.2-.2-1.8-.3h0c-8.3,0-16.5-.1-24.8-.1h-1.7c-7.8,0-15.5,0-23.3,0-1.4,0-2.8,0-4.1.4-.1,0-.2,0-.4,0-1.1.3-2.2.7-3.2,1.2-.2,0-.3.2-.5.3-3.5,2.2-5.5,5.8-5.5,10.2,0,1.9.4,3.7,1,5.2,0,0,0,0,0,.1,1.6,4.3,5.5,7.2,11.1,7.3,16.8.3,33.6.2,50.4,0,7.4-.1,12.5-5.5,12.4-12.2h0c0-2.2-.5-4.2-1.3-5.9Z"/>
</svg>